<mxfile host="app.diagrams.net" agent="Mozilla/5.0 (Windows NT 10.0; Win64; x64) AppleWebKit/537.36 (KHTML, like Gecko) Chrome/132.0.0.0 Safari/537.36" version="26.0.12">
  <diagram id="C5RBs43oDa-KdzZeNtuy" name="Page-1">
    <mxGraphModel dx="1173" dy="613" grid="1" gridSize="10" guides="1" tooltips="1" connect="1" arrows="1" fold="1" page="1" pageScale="1" pageWidth="3300" pageHeight="2339" math="0" shadow="0">
      <root>
        <mxCell id="WIyWlLk6GJQsqaUBKTNV-0" />
        <mxCell id="WIyWlLk6GJQsqaUBKTNV-1" parent="WIyWlLk6GJQsqaUBKTNV-0" />
        <mxCell id="fkY_jgQ20kAalcDAZ0zD-16" value="" style="endArrow=none;html=1;rounded=0;entryX=0.5;entryY=1;entryDx=0;entryDy=0;" edge="1" parent="WIyWlLk6GJQsqaUBKTNV-1" target="fkY_jgQ20kAalcDAZ0zD-17">
          <mxGeometry width="50" height="50" relative="1" as="geometry">
            <mxPoint x="1480" y="160" as="sourcePoint" />
            <mxPoint x="1465.5" y="110" as="targetPoint" />
          </mxGeometry>
        </mxCell>
        <mxCell id="fkY_jgQ20kAalcDAZ0zD-17" value="Start" style="ellipse;whiteSpace=wrap;html=1;" vertex="1" parent="WIyWlLk6GJQsqaUBKTNV-1">
          <mxGeometry x="1440" y="60" width="80" height="50" as="geometry" />
        </mxCell>
        <mxCell id="fkY_jgQ20kAalcDAZ0zD-18" value="HomePage" style="shape=parallelogram;perimeter=parallelogramPerimeter;whiteSpace=wrap;html=1;fixedSize=1;" vertex="1" parent="WIyWlLk6GJQsqaUBKTNV-1">
          <mxGeometry x="1410" y="160" width="120" height="60" as="geometry" />
        </mxCell>
        <mxCell id="fkY_jgQ20kAalcDAZ0zD-19" value="Tambah Data Obat" style="rounded=0;whiteSpace=wrap;html=1;" vertex="1" parent="WIyWlLk6GJQsqaUBKTNV-1">
          <mxGeometry x="1422" y="280" width="120" height="60" as="geometry" />
        </mxCell>
        <mxCell id="fkY_jgQ20kAalcDAZ0zD-20" value="&lt;font style=&quot;font-size: 10px;&quot;&gt;Input Jadwal&amp;nbsp;&lt;/font&gt;&lt;div&gt;&lt;font style=&quot;font-size: 10px;&quot;&gt;dan obat&lt;/font&gt;&lt;/div&gt;" style="shape=parallelogram;perimeter=parallelogramPerimeter;whiteSpace=wrap;html=1;fixedSize=1;" vertex="1" parent="WIyWlLk6GJQsqaUBKTNV-1">
          <mxGeometry x="1421" y="380" width="110" height="40" as="geometry" />
        </mxCell>
        <mxCell id="fkY_jgQ20kAalcDAZ0zD-21" value="" style="endArrow=none;html=1;rounded=0;exitX=0.539;exitY=0;exitDx=0;exitDy=0;entryX=0.5;entryY=1;entryDx=0;entryDy=0;exitPerimeter=0;" edge="1" parent="WIyWlLk6GJQsqaUBKTNV-1" source="fkY_jgQ20kAalcDAZ0zD-20">
          <mxGeometry width="50" height="50" relative="1" as="geometry">
            <mxPoint x="1478.5" y="380" as="sourcePoint" />
            <mxPoint x="1481" y="340" as="targetPoint" />
          </mxGeometry>
        </mxCell>
        <mxCell id="fkY_jgQ20kAalcDAZ0zD-22" value="Simpan ke database" style="rounded=0;whiteSpace=wrap;html=1;" vertex="1" parent="WIyWlLk6GJQsqaUBKTNV-1">
          <mxGeometry x="1422" y="480" width="120" height="60" as="geometry" />
        </mxCell>
        <mxCell id="fkY_jgQ20kAalcDAZ0zD-23" value="" style="endArrow=none;html=1;rounded=0;exitX=0.5;exitY=0;exitDx=0;exitDy=0;" edge="1" parent="WIyWlLk6GJQsqaUBKTNV-1">
          <mxGeometry width="50" height="50" relative="1" as="geometry">
            <mxPoint x="1481" y="480" as="sourcePoint" />
            <mxPoint x="1481" y="420" as="targetPoint" />
          </mxGeometry>
        </mxCell>
        <mxCell id="fkY_jgQ20kAalcDAZ0zD-25" value="" style="endArrow=none;html=1;rounded=0;entryX=0.584;entryY=1.049;entryDx=0;entryDy=0;entryPerimeter=0;exitX=0.5;exitY=0;exitDx=0;exitDy=0;" edge="1" parent="WIyWlLk6GJQsqaUBKTNV-1" target="fkY_jgQ20kAalcDAZ0zD-18">
          <mxGeometry width="50" height="50" relative="1" as="geometry">
            <mxPoint x="1480" y="280" as="sourcePoint" />
            <mxPoint x="1280" y="280" as="targetPoint" />
          </mxGeometry>
        </mxCell>
        <mxCell id="fkY_jgQ20kAalcDAZ0zD-26" value="" style="endArrow=none;html=1;rounded=0;" edge="1" parent="WIyWlLk6GJQsqaUBKTNV-1">
          <mxGeometry width="50" height="50" relative="1" as="geometry">
            <mxPoint x="1320" y="320" as="sourcePoint" />
            <mxPoint x="1420" y="320" as="targetPoint" />
          </mxGeometry>
        </mxCell>
        <mxCell id="fkY_jgQ20kAalcDAZ0zD-27" value="" style="rhombus;whiteSpace=wrap;html=1;" vertex="1" parent="WIyWlLk6GJQsqaUBKTNV-1">
          <mxGeometry x="1290" y="350" width="60" height="60" as="geometry" />
        </mxCell>
        <mxCell id="fkY_jgQ20kAalcDAZ0zD-28" value="" style="endArrow=none;html=1;rounded=0;exitX=0.5;exitY=0;exitDx=0;exitDy=0;" edge="1" parent="WIyWlLk6GJQsqaUBKTNV-1" source="fkY_jgQ20kAalcDAZ0zD-27">
          <mxGeometry width="50" height="50" relative="1" as="geometry">
            <mxPoint x="1510" y="410" as="sourcePoint" />
            <mxPoint x="1320" y="320" as="targetPoint" />
          </mxGeometry>
        </mxCell>
        <mxCell id="fkY_jgQ20kAalcDAZ0zD-32" value="" style="endArrow=none;html=1;rounded=0;entryX=0;entryY=0.5;entryDx=0;entryDy=0;" edge="1" parent="WIyWlLk6GJQsqaUBKTNV-1" target="fkY_jgQ20kAalcDAZ0zD-27">
          <mxGeometry width="50" height="50" relative="1" as="geometry">
            <mxPoint x="1241" y="380" as="sourcePoint" />
            <mxPoint x="1561" y="360" as="targetPoint" />
          </mxGeometry>
        </mxCell>
        <mxCell id="fkY_jgQ20kAalcDAZ0zD-33" value="" style="endArrow=none;html=1;rounded=0;" edge="1" parent="WIyWlLk6GJQsqaUBKTNV-1">
          <mxGeometry width="50" height="50" relative="1" as="geometry">
            <mxPoint x="1320" y="450" as="sourcePoint" />
            <mxPoint x="1320" y="410" as="targetPoint" />
          </mxGeometry>
        </mxCell>
        <mxCell id="fkY_jgQ20kAalcDAZ0zD-34" value="&lt;span style=&quot;font-size: 7px;&quot;&gt;Hapus&lt;/span&gt;" style="text;html=1;align=center;verticalAlign=middle;resizable=0;points=[];autosize=1;strokeColor=none;fillColor=none;rotation=90;" vertex="1" parent="WIyWlLk6GJQsqaUBKTNV-1">
          <mxGeometry x="1310" y="410" width="40" height="30" as="geometry" />
        </mxCell>
        <mxCell id="fkY_jgQ20kAalcDAZ0zD-35" value="&lt;span style=&quot;font-size: 7px;&quot;&gt;Lihat Detail&lt;/span&gt;" style="text;html=1;align=center;verticalAlign=middle;resizable=0;points=[];autosize=1;strokeColor=none;fillColor=none;rotation=0;" vertex="1" parent="WIyWlLk6GJQsqaUBKTNV-1">
          <mxGeometry x="1238" y="357" width="60" height="30" as="geometry" />
        </mxCell>
        <mxCell id="fkY_jgQ20kAalcDAZ0zD-36" value="" style="endArrow=none;html=1;rounded=0;" edge="1" parent="WIyWlLk6GJQsqaUBKTNV-1">
          <mxGeometry width="50" height="50" relative="1" as="geometry">
            <mxPoint x="1241" y="410" as="sourcePoint" />
            <mxPoint x="1241" y="380" as="targetPoint" />
          </mxGeometry>
        </mxCell>
        <mxCell id="fkY_jgQ20kAalcDAZ0zD-39" value="&lt;font style=&quot;font-size: 10px;&quot;&gt;Tampilan Jadwal&lt;/font&gt;" style="rounded=0;whiteSpace=wrap;html=1;" vertex="1" parent="WIyWlLk6GJQsqaUBKTNV-1">
          <mxGeometry x="1211" y="410" width="60" height="30" as="geometry" />
        </mxCell>
        <mxCell id="fkY_jgQ20kAalcDAZ0zD-41" value="" style="endArrow=none;html=1;rounded=0;entryX=0.5;entryY=1;entryDx=0;entryDy=0;" edge="1" parent="WIyWlLk6GJQsqaUBKTNV-1">
          <mxGeometry width="50" height="50" relative="1" as="geometry">
            <mxPoint x="1320" y="520" as="sourcePoint" />
            <mxPoint x="1320" y="480" as="targetPoint" />
          </mxGeometry>
        </mxCell>
        <mxCell id="fkY_jgQ20kAalcDAZ0zD-42" value="" style="endArrow=none;html=1;rounded=0;entryX=0.004;entryY=0.643;entryDx=0;entryDy=0;entryPerimeter=0;" edge="1" parent="WIyWlLk6GJQsqaUBKTNV-1">
          <mxGeometry width="50" height="50" relative="1" as="geometry">
            <mxPoint x="1319.44" y="520" as="sourcePoint" />
            <mxPoint x="1421.48" y="518.5799999999999" as="targetPoint" />
          </mxGeometry>
        </mxCell>
        <mxCell id="fkY_jgQ20kAalcDAZ0zD-44" value="data&amp;nbsp;&lt;div&gt;terhapus&lt;/div&gt;" style="shape=parallelogram;perimeter=parallelogramPerimeter;whiteSpace=wrap;html=1;fixedSize=1;" vertex="1" parent="WIyWlLk6GJQsqaUBKTNV-1">
          <mxGeometry x="1285" y="450" width="85" height="30" as="geometry" />
        </mxCell>
      </root>
    </mxGraphModel>
  </diagram>
</mxfile>
